<?xml version="1.0" encoding="UTF-8"?>
<svg id="Capa_2" data-name="Capa 2" xmlns="http://www.w3.org/2000/svg" xmlns:xlink="http://www.w3.org/1999/xlink" viewBox="0 0 1872 533.65">
  <defs>
    <style>
      .cls-1 {
        fill: #fff;
      }

      .cls-2 {
        fill: url(#Degradado_sin_nombre_7);
      }
    </style>
    <linearGradient id="Degradado_sin_nombre_7" data-name="Degradado sin nombre 7" x1="79.58" y1="255.64" x2="459.46" y2="255.64" gradientUnits="userSpaceOnUse">
      <stop offset="0" stop-color="#2563eb"/>
      <stop offset="1" stop-color="#9333ea"/>
    </linearGradient>
  </defs>
  <g id="Capa_1" data-name="Capa 1">
    <g>
      <path class="cls-1" d="M919.63,427.25v-84.83h18.85v84.83h-18.85Z"/>
      <path class="cls-1" d="M1008.46,427.25h-18.85v-4.71c-4.79,4.32-10.92,6.48-18.38,6.48-8.01,0-14.83-2.93-20.44-8.78-5.62-5.85-8.42-13.37-8.42-22.56s2.81-16.61,8.42-22.5c5.62-5.89,12.43-8.84,20.44-8.84,7.46,0,13.59,2.16,18.38,6.48v-4.71h18.85v59.14ZM985.31,408.7c2.87-2.87,4.3-6.54,4.3-11.02s-1.43-8.05-4.3-10.96c-2.87-2.91-6.26-4.36-10.19-4.36-4.16,0-7.58,1.43-10.25,4.3-2.67,2.87-4.01,6.54-4.01,11.02s1.34,8.25,4.01,11.07c2.67,2.83,6.09,4.24,10.25,4.24,3.93,0,7.32-1.43,10.19-4.3Z"/>
      <path class="cls-1" d="M1069.91,373.11c4.2,4.52,6.3,10.47,6.3,17.85v36.29h-18.73v-32.28c0-3.46-.94-6.26-2.83-8.42-1.89-2.16-4.32-3.24-7.3-3.24-3.85,0-6.85,1.36-9.01,4.06s-3.24,6.85-3.24,12.43v27.45h-18.85v-59.14h18.85v5.66c4.71-4.95,10.76-7.42,18.14-7.42,6.91,0,12.47,2.26,16.67,6.77Z"/>
      <path class="cls-1" d="M1119.39,383.07v-14.96h-15.68v-17.44h-18.85v17.44h-7.74c5.18,6.03,7.81,13.71,7.81,22.86l-.03.74c.05,5.13-.04,13.76-.04,13.76,0,7.7,2.06,13.55,6.19,17.56,4.12,4.01,9.92,6.01,17.38,6.01,3.64,0,7.29-.69,10.97-2.04v-16.73c-2.5,1.28-5.1,1.92-7.79,1.92-5.26,0-7.89-2.87-7.89-8.6v-20.5h15.68Z"/>
      <path class="cls-1" d="M1143.25,343.13c2.08,2.12,3.12,4.63,3.12,7.54s-1.04,5.48-3.12,7.48c-2.08,2-4.69,3-7.83,3s-5.73-1-7.78-3c-2.04-2-3.06-4.5-3.06-7.48s1.02-5.52,3.06-7.6c2.04-2.08,4.63-3.12,7.78-3.12s5.75,1.06,7.83,3.18ZM1125.99,427.25v-59.14h18.85v59.14h-18.85Z"/>
      <path class="cls-1" d="M1215.76,427.25h-18.85v-4.71c-4.79,4.32-10.92,6.48-18.38,6.48-8.01,0-14.82-2.93-20.44-8.78-5.62-5.85-8.42-13.37-8.42-22.56s2.81-16.61,8.42-22.5c5.62-5.89,12.43-8.84,20.44-8.84,7.46,0,13.59,2.16,18.38,6.48v-4.71h18.85v59.14ZM1192.61,408.7c2.87-2.87,4.3-6.54,4.3-11.02s-1.43-8.05-4.3-10.96c-2.87-2.91-6.26-4.36-10.19-4.36-4.16,0-7.58,1.43-10.25,4.3-2.67,2.87-4.01,6.54-4.01,11.02s1.34,8.25,4.01,11.07c2.67,2.83,6.09,4.24,10.25,4.24,3.93,0,7.32-1.43,10.19-4.3Z"/>
    </g>
    <g>
      <path class="cls-1" d="M636.65,421.68c-.08,7.96-2.63,14.3-7.65,19.01-5.02,4.71-11.67,7.07-19.94,7.07-14.14,0-23.45-5.29-27.94-15.88l4.99-3.01c4.1,9.12,11.75,13.68,22.95,13.68,6.57,0,11.86-1.95,15.88-5.85,4.02-3.9,6.06-9.1,6.15-15.59v-10.78c-4.95,8.11-12.68,12.17-23.19,12.17-7.8,0-14.45-2.57-19.94-7.71-5.49-5.14-8.23-11.73-8.23-19.77s2.74-14.49,8.23-19.59c5.49-5.1,12.13-7.65,19.94-7.65,10.59,0,18.32,4.02,23.19,12.06v-10.78h5.56v52.63ZM624.48,411.25c4.41-4.17,6.61-9.58,6.61-16.23s-2.2-12.02-6.61-16.11c-4.4-4.1-9.7-6.14-15.88-6.14-6.57,0-12.11,2.05-16.63,6.14s-6.78,9.47-6.78,16.11,2.26,12.15,6.78,16.29c4.52,4.13,10.06,6.2,16.63,6.2,6.18,0,11.48-2.09,15.88-6.26Z"/>
      <path class="cls-1" d="M678.65,368.94l-.58,5.33c-.77-.15-1.89-.23-3.36-.23-7.5,0-13.39,2.68-17.68,8.06-4.29,5.37-6.43,12.04-6.43,20v23.65h-5.68v-56.69h5.68v15.88c2.4-4.95,5.66-8.91,9.8-11.88,4.13-2.98,8.91-4.46,14.32-4.46,1.54,0,2.86.12,3.94.35Z"/>
      <path class="cls-1" d="M736.23,425.74h-5.68v-12.06c-2.24,4.25-5.35,7.55-9.34,9.91-3.98,2.36-8.6,3.54-13.85,3.54-6.88,0-12.4-2.24-16.58-6.72-4.17-4.48-6.26-10.4-6.26-17.74v-33.62h5.56v32.81c0,5.95,1.64,10.76,4.93,14.43,3.28,3.67,7.63,5.51,13.04,5.51,6.8,0,12.25-2.18,16.35-6.55,4.1-4.37,6.15-10.3,6.15-17.79v-28.4h5.68v56.69Z"/>
      <path class="cls-1" d="M798.95,375.95c5.56,5.53,8.35,12.66,8.35,21.39s-2.78,15.96-8.35,21.45c-5.56,5.49-12.33,8.23-20.29,8.23-5.18,0-9.93-1.18-14.26-3.54-4.33-2.36-7.73-5.66-10.21-9.91v31.88h-5.68v-76.39h5.68v12.06c2.47-4.25,5.87-7.55,10.21-9.91,4.33-2.36,9.08-3.54,14.26-3.54,7.96,0,14.73,2.76,20.29,8.29ZM794.89,415.19c4.56-4.48,6.84-10.43,6.84-17.85s-2.3-13.27-6.9-17.8c-4.6-4.52-10.22-6.78-16.87-6.78s-11.88,2.28-16.63,6.84c-4.75,4.56-7.13,10.47-7.13,17.74s2.36,13.18,7.07,17.74c4.71,4.56,10.28,6.84,16.69,6.84s12.36-2.24,16.92-6.72Z"/>
      <path class="cls-1" d="M863.83,376.18c5.72,5.6,8.58,12.66,8.58,21.16s-2.86,15.57-8.58,21.21c-5.72,5.64-12.79,8.46-21.21,8.46s-15.5-2.82-21.21-8.46c-5.72-5.64-8.58-12.71-8.58-21.21s2.86-15.55,8.58-21.16c5.72-5.6,12.79-8.41,21.21-8.41s15.49,2.8,21.21,8.41ZM859.83,414.9c4.68-4.67,7.01-10.53,7.01-17.56s-2.32-12.98-6.95-17.62c-4.64-4.64-10.4-6.96-17.27-6.96s-12.64,2.32-17.28,6.96c-4.63,4.64-6.95,10.51-6.95,17.62s2.34,12.89,7.01,17.56c4.67,4.68,10.42,7.01,17.22,7.01s12.54-2.34,17.21-7.01Z"/>
    </g>
    <rect class="cls-1" x="891.29" y="341.54" width="5.68" height="103.9"/>
    <rect class="cls-2" x="79.58" y="65.69" width="379.88" height="379.88" rx="28.35" ry="28.35"/>
    <g>
      <polygon class="cls-1" points="624.33 65.69 569.55 65.69 569.55 270.01 701.51 270.01 701.51 231.92 624.33 231.92 624.33 65.69"/>
      <rect class="cls-1" x="717.45" y="138.5" width="43.9" height="131.51"/>
      <path class="cls-1" d="M921.83,167.98c-5.47-10.11-12.86-17.91-22.18-23.41-9.32-5.5-19.68-8.25-31.08-8.25-10.63,0-19.72,2.43-27.27,7.28-2.79,1.79-5.33,3.95-7.63,6.45v-60.07h-43.9v180.03h41.82v-13.22c2.59,3.22,5.54,5.95,8.9,8.12,7.47,4.85,16.83,7.28,28.08,7.28s21.76-2.79,31.08-8.37c9.32-5.58,16.71-13.42,22.18-23.53,5.47-10.11,8.2-22.2,8.2-36.27s-2.74-25.92-8.2-36.03ZM882.09,221.12c-2.39,4.77-5.55,8.37-9.47,10.8-3.93,2.43-8.36,3.64-13.29,3.64s-9.36-1.21-13.29-3.64c-3.93-2.43-7.09-6.02-9.47-10.8-2.39-4.77-3.58-10.47-3.58-17.11s1.19-12.25,3.58-16.86c2.39-4.61,5.55-8.13,9.47-10.55,3.93-2.43,8.35-3.64,13.29-3.64s9.36,1.21,13.29,3.64c3.93,2.43,7.08,5.94,9.47,10.55,2.39,4.61,3.58,10.23,3.58,16.86s-1.19,12.34-3.58,17.11Z"/>
      <path class="cls-1" d="M1069.37,167.38c-6.01-10.19-14.1-17.91-24.26-23.17-10.17-5.25-21.42-7.88-33.74-7.88-13.09,0-24.88,2.87-35.35,8.61-10.48,5.74-18.69,13.75-24.61,24.02-5.93,10.27-8.89,21.96-8.89,35.06s3.04,24.79,9.13,35.06c6.08,10.27,14.64,18.36,25.65,24.26,11.01,5.91,23.92,8.86,38.71,8.86,12.02,0,22.41-1.82,31.2-5.46,8.78-3.64,16.17-8.94,22.18-15.89l-23.11-25.23c-4.32,3.88-8.66,6.76-13.05,8.61-4.39,1.86-9.67,2.79-15.83,2.79-6.62,0-12.32-1.25-17.1-3.76-4.77-2.51-8.44-6.1-10.97-10.8-1.09-2.01-1.9-4.22-2.52-6.55h90.9c.15-1.78.31-3.72.46-5.82.15-2.1.23-3.96.23-5.58,0-14.56-3-26.93-9.01-37.12ZM986.1,191.64c.52-3.12,1.37-6.01,2.63-8.61,2.16-4.45,5.2-7.89,9.13-10.31,3.93-2.43,8.51-3.64,13.75-3.64s9.82,1.21,13.75,3.64c3.93,2.43,7.01,5.82,9.24,10.19,1.33,2.61,2.19,5.55,2.67,8.73h-51.17Z"/>
      <path class="cls-1" d="M1140.54,154.37v-15.87h-41.83v131.51h43.91v-60.41c0-11.48,2.77-19.77,8.32-24.87,5.55-5.09,12.79-7.64,21.72-7.64,1.69,0,3.27.04,4.74.12,1.46.08,3.19.28,5.2.61v-41.49c-11.86,0-21.95,2.47-30.27,7.4-4.66,2.77-8.57,6.34-11.79,10.65Z"/>
      <path class="cls-1" d="M1249.72,149.79c3.93-4.28,8.67-7.56,14.21-9.83,5.55-2.26,11.63-3.4,18.25-3.4,7.7,0,14.67,1.7,20.91,5.1,6.24,3.4,11.98,8.33,17.21,14.8l29.12-27.66c-7.86-10.35-17.68-18.28-29.46-23.78-11.79-5.5-25.15-8.25-40.09-8.25-12.79,0-24.61,2.15-35.47,6.43-10.86,4.29-20.26,10.4-28.19,18.32-7.94,7.93-14.14,17.27-18.6,28.02-4.47,10.76-6.7,22.61-6.7,35.54s2.23,24.79,6.7,35.55c4.46,10.76,10.66,20.1,18.6,28.02,7.93,7.93,17.33,14.03,28.19,18.32,10.86,4.28,22.68,6.43,35.47,6.43,14.94,0,28.31-2.79,40.09-8.37,11.78-5.58,21.6-13.47,29.46-23.66l-29.12-27.66c-5.24,6.47-10.97,11.4-17.21,14.8-6.24,3.4-13.21,5.1-20.91,5.1-6.63,0-12.71-1.13-18.25-3.4-5.55-2.26-10.28-5.54-14.21-9.83-3.93-4.28-7.01-9.42-9.24-15.41-2.23-5.98-3.35-12.62-3.35-19.9s1.12-13.91,3.35-19.9c2.23-5.98,5.32-11.12,9.24-15.41Z"/>
      <path class="cls-1" d="M1649.71,168.23c-5.47-10.11-12.86-17.95-22.18-23.53-9.32-5.58-19.68-8.37-31.08-8.37s-20.6,2.43-28.07,7.28c-3.35,2.18-6.3,4.9-8.9,8.1v-13.19h-41.83v178.58h43.91v-58.79c2.3,2.51,4.83,4.68,7.63,6.5,7.54,4.94,16.64,7.4,27.27,7.4,11.4,0,21.76-2.75,31.08-8.25,9.32-5.5,16.71-13.35,22.18-23.54,5.47-10.19,8.2-22.24,8.2-36.15s-2.74-25.92-8.2-36.03ZM1609.97,221.24c-2.39,4.69-5.55,8.25-9.47,10.68-3.93,2.43-8.36,3.64-13.29,3.64s-9.36-1.21-13.29-3.64c-3.93-2.43-7.09-5.98-9.47-10.68-2.39-4.69-3.58-10.35-3.58-16.98s1.19-12.29,3.58-16.98c2.38-4.69,5.55-8.25,9.47-10.68,3.93-2.43,8.36-3.64,13.29-3.64s9.36,1.21,13.29,3.64c3.93,2.43,7.08,5.99,9.47,10.68,2.39,4.69,3.58,10.35,3.58,16.98s-1.2,12.3-3.58,16.98Z"/>
      <path class="cls-1" d="M1764.9,138.5l-30.95,80.35-30.75-80.35h-45.06l53.65,133.18c-1.7,3.39-3.64,6-5.82,7.78-2.77,2.26-6.55,3.4-11.32,3.4-3.39,0-6.82-.69-10.28-2.06-3.47-1.38-6.51-3.28-9.13-5.7l-15.25,32.27c4.16,3.56,9.59,6.43,16.29,8.61,6.7,2.18,13.36,3.28,19.99,3.28,8.32,0,15.91-1.3,22.76-3.88,6.85-2.59,13.09-7.08,18.72-13.47,5.62-6.39,10.59-15.25,14.9-26.57l54.07-136.84h-41.82Z"/>
      <g>
        <path class="cls-1" d="M1488.31,168.83c-6.01-10.19-14.37-18.16-25.07-23.9-10.71-5.74-22.92-8.61-36.63-8.61s-25.88,2.87-36.51,8.61c-10.63,5.74-18.99,13.71-25.07,23.9-6.09,10.19-9.13,21.92-9.13,35.18s3.04,25.03,9.13,35.3c6.08,10.27,14.44,18.32,25.07,24.14,10.63,5.82,22.8,8.73,36.51,8.73s25.92-2.91,36.63-8.73c10.71-5.82,19.06-13.87,25.07-24.14,6.01-10.27,9.01-22.04,9.01-35.3s-3-24.99-9.01-35.18ZM1449.49,221.12c-2.31,4.77-5.43,8.37-9.36,10.8-3.93,2.43-8.43,3.64-13.52,3.64s-9.36-1.21-13.29-3.64c-3.93-2.43-7.09-6.02-9.47-10.8-2.39-4.77-3.58-10.47-3.58-17.11s1.19-12.25,3.58-16.86c2.38-4.61,5.55-8.13,9.47-10.55,3.93-2.43,8.36-3.64,13.29-3.64s9.59,1.21,13.52,3.64c3.93,2.43,7.05,5.94,9.36,10.55,2.31,4.61,3.47,10.23,3.47,16.86s-1.16,12.34-3.47,17.11Z"/>
        <circle class="cls-1" cx="1426.61" cy="204.26" r="13.29"/>
      </g>
      <path class="cls-1" d="M758.81,81.61c-4.93-4.45-11.4-6.67-19.41-6.67s-14.48,2.35-19.41,7.04c-4.93,4.69-7.39,10.52-7.39,17.47s2.46,12.78,7.39,17.47c4.93,4.69,11.4,7.04,19.41,7.04s14.67-2.38,19.53-7.16c4.85-4.77,7.28-10.8,7.28-18.08s-2.47-12.65-7.39-17.11Z"/>
    </g>
    <g id="L_-_LiberCopyç" data-name="L - LiberCopyç">
      <polygon class="cls-1" points="182.13 379.69 193.78 388.41 216.38 140.39 182.13 379.69"/>
      <polygon class="cls-1" points="142.75 352.74 155.11 361.21 207.06 151.32 142.75 352.74"/>
      <polygon class="cls-1" points="217.37 397.15 219.6 148.21 202.04 394.99 217.37 397.15"/>
      <polygon class="cls-1" points="161.3 367.16 175.06 375.76 212.59 143.15 161.3 367.16"/>
      <path class="cls-1" d="M306.28,112.98l-81.27.09c-.64-.06-1.29-.09-1.93-.09-9.68-.05-19.42,6.13-24.94,19.16l-72.8,207.33c-1.12,3.19.47,6.69,3.56,7.84,3.09,1.16,6.48-.48,7.6-3.67l72.8-207.33c2.21-6.29,15.23-7.24,17.05,4.07l1.21,257.53,186.49.38v-53.82l-107.78-.09V112.98Z"/>
    </g>
  </g>
</svg>